<?xml version="1.0" standalone="no"?>
<!DOCTYPE svg PUBLIC "-//W3C//DTD SVG 20010904//EN"
 "http://www.w3.org/TR/2001/REC-SVG-20010904/DTD/svg10.dtd">
<svg version="1.0" xmlns="http://www.w3.org/2000/svg"
 width="192.000000pt" height="192.000000pt" viewBox="0 0 192.000000 192.000000"
 preserveAspectRatio="xMidYMid meet">

<g transform="translate(0.000000,192.000000) scale(0.100000,-0.100000)"
fill="#000000" stroke="none">
<path d="M470 966 c0 -61 7 -70 50 -61 31 7 42 37 19 51 -8 4 -7 9 2 15 22 14
-3 44 -40 47 l-31 3 0 -55z m45 24 c3 -5 -1 -10 -10 -10 -9 0 -13 5 -10 10 3
6 8 10 10 10 2 0 7 -4 10 -10z m5 -50 c0 -5 -4 -10 -9 -10 -6 0 -13 5 -16 10
-3 6 1 10 9 10 9 0 16 -4 16 -10z"/>
<path d="M587 965 l-27 -56 34 6 c19 4 43 2 55 -4 15 -8 21 -8 21 -1 0 11 -48
110 -53 110 -2 0 -15 -25 -30 -55z"/>
<path d="M692 963 l3 -58 37 -3 c31 -3 37 0 32 12 -3 9 -15 16 -25 16 -16 0
-19 8 -19 45 0 34 -4 45 -15 45 -13 0 -15 -11 -13 -57z"/>
<path d="M832 963 c2 -34 8 -58 16 -61 8 -2 12 6 12 25 l0 28 26 -28 c14 -15
30 -25 35 -21 6 4 2 15 -11 29 l-22 24 21 22 c12 13 21 26 21 31 0 16 -32 7
-51 -14 l-18 -23 -1 23 c0 13 -6 22 -15 22 -13 0 -15 -11 -13 -57z"/>
<path d="M965 968 c-18 -39 -21 -54 -12 -60 7 -4 14 -3 15 2 5 14 46 12 60 -2
24 -24 23 2 -1 56 -14 31 -29 56 -32 56 -3 0 -17 -23 -30 -52z"/>
<path d="M1070 966 c0 -30 5 -58 11 -61 6 -4 26 -4 45 0 30 5 34 9 28 28 -4
12 -8 33 -9 47 -1 14 -3 28 -3 33 -1 4 -18 7 -37 7 l-35 0 0 -54z m45 24 c3
-5 1 -10 -4 -10 -6 0 -11 5 -11 10 0 6 2 10 4 10 3 0 8 -4 11 -10z m5 -50 c0
-5 -4 -10 -10 -10 -5 0 -10 5 -10 10 0 6 5 10 10 10 6 0 10 -4 10 -10z"/>
<path d="M1192 968 c-17 -40 -20 -53 -10 -59 7 -5 15 -4 16 1 5 13 49 13 57 0
4 -6 10 -8 15 -5 9 6 -39 115 -50 115 -3 0 -15 -24 -28 -52z"/>
<path d="M1306 1004 c-25 -25 -17 -76 14 -91 39 -19 72 -6 68 26 -3 29 -34 37
-32 9 2 -19 -21 -25 -31 -8 -14 23 6 50 37 50 39 0 32 24 -9 28 -19 2 -37 -3
-47 -14z"/>
<path d="M1422 965 c2 -30 8 -55 13 -55 6 0 11 25 13 55 2 45 0 55 -13 55 -13
0 -15 -10 -13 -55z"/>
</g>
</svg>
